<?xml version="1.0" encoding="UTF-8"?>
<svg width="54px" height="54px" viewBox="0 0 54 54" version="1.1" xmlns="http://www.w3.org/2000/svg" xmlns:xlink="http://www.w3.org/1999/xlink">
    <!-- Generator: Sketch 3.7.2 (28276) - http://www.bohemiancoding.com/sketch -->
    <title>Group 38</title>
    <desc>Created with Sketch.</desc>
    <defs>
        <rect id="path-1" x="8" y="8" width="38" height="38"></rect>
        <mask id="mask-2" maskContentUnits="userSpaceOnUse" maskUnits="objectBoundingBox" x="0" y="0" width="38" height="38" fill="white">
            <use xlink:href="#path-1"></use>
        </mask>
    </defs>
    <g id="Fiche" stroke="none" stroke-width="1" fill="none" fill-rule="evenodd">
        <g id="Group-38">
            <use id="Rectangle-35" stroke="#CE9600" mask="url(#mask-2)" stroke-width="6" fill="#FFBA00" transform="translate(27.000000, 27.000000) rotate(-45.000000) translate(-27.000000, -27.000000) " xlink:href="#path-1"></use>
            <g id="icons8-edit" transform="translate(27.500000, 27.022727) rotate(-45.000000) translate(-27.500000, -27.022727) translate(16.000000, 15.000000)" fill="#986F00">
                <g id="surface1" transform="translate(-0.000000, 0.000000)">
                    <path d="M17.9308868,4.77820163e-05 C17.3980342,-0.00345760249 16.8756987,0.185844827 16.4725535,0.588990071 L15.5751176,1.51447081 L21.4925854,7.45998344 L22.3900212,6.5345027 C23.1998171,5.72470683 23.2068279,4.41010418 22.3900212,3.58979126 L19.4172649,0.617034942 C19.0071089,0.206878929 18.4637393,0.00355316652 17.9308868,4.77820163e-05 L17.9308868,4.77820163e-05 Z M14.5655022,2.32777207 L13.1632587,3.67392587 L19.3331303,9.84379747 L20.7634187,8.52568854 L14.5655022,2.32777207 Z M12.2658228,4.65549635 L2.5622975,14.2748871 C2.33793853,14.3905719 2.17668097,14.5938977 2.11357956,14.8357845 L0.0382591178,21.8750471 C-0.0563922766,22.1835407 0.0277420668,22.5235845 0.255607316,22.7514497 C0.483471668,22.9793141 0.823515503,23.0634487 1.13200908,22.968797 L8.17127168,20.8934766 C8.49729308,20.8443985 8.76722563,20.6165333 8.87239345,20.3045343 L18.4356944,10.8253679 L17.1175855,9.50725902 L7.30188068,19.3510087 L3.34755388,20.5008484 L2.50620776,19.6595023 L3.71213721,15.5369063 L13.4437074,5.83338093 L12.2658228,4.65549635 Z M14.397233,6.81495141 L4.55348333,16.686746 L5.98377175,16.9952395 L6.18008584,18.3133485 L16.0518804,8.46959879 L14.397233,6.81495141 Z" id="Shape"></path>
                </g>
            </g>
        </g>
    </g>
</svg>