<?xml version="1.0" encoding="UTF-8"?>
<svg width="47px" height="47px" viewBox="0 0 47 47" version="1.1" xmlns="http://www.w3.org/2000/svg" xmlns:xlink="http://www.w3.org/1999/xlink">
    <!-- Generator: Sketch 3.7.2 (28276) - http://www.bohemiancoding.com/sketch -->
    <title>Group 26</title>
    <desc>Created with Sketch.</desc>
    <defs>
        <filter x="-50%" y="-50%" width="200%" height="200%" filterUnits="objectBoundingBox" id="filter-1">
            <feOffset dx="0" dy="2" in="SourceAlpha" result="shadowOffsetOuter1"></feOffset>
            <feGaussianBlur stdDeviation="2" in="shadowOffsetOuter1" result="shadowBlurOuter1"></feGaussianBlur>
            <feColorMatrix values="0 0 0 0 0   0 0 0 0 0   0 0 0 0 0  0 0 0 0.5 0" type="matrix" in="shadowBlurOuter1" result="shadowMatrixOuter1"></feColorMatrix>
            <feMerge>
                <feMergeNode in="shadowMatrixOuter1"></feMergeNode>
                <feMergeNode in="SourceGraphic"></feMergeNode>
            </feMerge>
        </filter>
    </defs>
    <g id="Utilisateur" stroke="none" stroke-width="1" fill="none" fill-rule="evenodd">
        <g id="Group-18" transform="translate(-1091.000000, -839.000000)">
            <g id="Group-17" transform="translate(0.000000, 72.000000)">
                <g id="Group-16" transform="translate(152.000000, 427.000000)">
                    <g id="Group-15" transform="translate(876.000000, 170.000000)">
                        <g id="Group-4">
                            <g id="Group-26" filter="url(#filter-1)" transform="translate(67.000000, 172.000000)">
                                <rect id="Rectangle-12" fill="#56BDD8" x="0" y="0" width="38.4615385" height="38.4615385" rx="8"></rect>
                                <path d="M12.7584135,28.273738 C12.7323717,28.4690515 12.6705233,28.6285551 12.5728666,28.7522536 C12.4752098,28.8759521 12.3580235,28.9736074 12.2213041,29.0452224 C12.0845847,29.1168373 11.9381017,29.1672925 11.781851,29.1965895 C11.6256002,29.2258866 11.4758621,29.2405349 11.3326322,29.2405349 C11.1633605,29.2405349 10.9989742,29.2226314 10.8394681,29.1868239 C10.6799621,29.1510164 10.538362,29.0956785 10.4146635,29.0208083 C10.2909649,28.9459381 10.1933097,28.8547932 10.1216947,28.7473708 C10.0500798,28.6399484 10.0142728,28.5178793 10.0142728,28.3811599 C10.0142728,28.1142314 10.0272935,27.8684657 10.0533353,27.6438552 C10.0793771,27.4192447 10.1184392,27.19301 10.1705228,26.9651442 C10.3528154,26.2034217 10.512319,25.4954209 10.6490385,24.8411208 C10.7857579,24.1868206 10.9029442,23.5667097 11.000601,22.9807692 C11.0982577,22.3948288 11.1828923,21.8268006 11.2545072,21.2766677 C11.3261222,20.7265347 11.3895981,20.1731548 11.4449369,19.6165114 C11.5002757,19.059868 11.5507309,18.4853295 11.5963041,17.8928786 C11.6418772,17.3004277 11.6907049,16.6656684 11.7427885,15.9885817 L11.7427885,15.7639724 C11.7427885,15.6728261 11.7330229,15.5865639 11.7134916,15.5051833 C11.6939602,15.4238027 11.6597809,15.3538164 11.6109525,15.2952224 C11.5621242,15.2366283 11.4888827,15.2073317 11.391226,15.2073317 C11.2349752,15.2073317 11.0445474,15.2610421 10.8199369,15.3684645 C10.5953264,15.475887 10.3593262,15.6207423 10.1119291,15.8030349 C9.86453202,15.9853274 9.61713866,16.1985414 9.36974159,16.4426833 C9.12234452,16.6868251 8.89448221,16.9488668 8.68614784,17.2288161 C8.64708514,17.3264728 8.5852368,17.3964591 8.50060096,17.438777 C8.41596512,17.481095 8.32156502,17.5022536 8.21739784,17.5022536 C8.18484559,17.5022536 8.15066624,17.4745846 8.11485877,17.4192458 C8.0790513,17.363907 8.04649955,17.2971759 8.01720252,17.2190505 C7.9879055,17.1409251 7.96349168,17.0579181 7.94396034,16.970027 C7.92442899,16.882136 7.91466346,16.8023842 7.91466346,16.7307692 C7.91466346,16.6917065 7.92768416,16.6591548 7.95372596,16.633113 C8.18810213,15.86488 8.45339896,15.2219828 8.7496244,14.704402 C9.04584984,14.1868213 9.35834671,13.773414 9.6871244,13.4641677 C10.0159021,13.1549213 10.3511852,12.935197 10.6929838,12.804988 C11.0347824,12.674779 11.3619275,12.6096755 11.6744291,12.6096755 C12.0780769,12.6096755 12.41336,12.6861721 12.6802885,12.8391677 C12.9472169,12.9921632 13.1588033,13.2070048 13.3150541,13.4836989 C13.4713049,13.760393 13.5803533,14.0940485 13.6422025,14.4846755 C13.7040518,14.8753024 13.734976,15.3082408 13.734976,15.7835036 C13.734976,16.1480888 13.7056794,16.5745168 13.6470853,17.0628005 C13.5884913,17.5510842 13.5152498,18.0637744 13.4273588,18.6008864 C13.3394677,19.1379985 13.24344,19.6767301 13.1392728,20.2170974 C13.0351056,20.7574646 12.9341952,21.2620169 12.8365385,21.7307692 C13.0448728,20.8648795 13.2906386,20.0331821 13.5738431,19.235652 C13.8570477,18.438122 14.1662894,17.6926868 14.5015775,16.9993239 C14.8368657,16.3059611 15.1933074,15.6777122 15.5709135,15.1145583 C15.9485195,14.5514044 16.337513,14.0680108 16.7379056,13.664363 C17.1382983,13.2607151 17.5435677,12.9482183 17.953726,12.726863 C18.3638843,12.5055077 18.7707812,12.3948317 19.1744291,12.3948317 C19.4739098,12.3948317 19.7505997,12.4599352 20.0045072,12.5901442 C20.2584147,12.7203532 20.4765115,12.9221741 20.6588041,13.195613 C20.8410967,13.4690518 20.9826968,13.8141005 21.0836088,14.2307692 C21.1845207,14.647438 21.234976,15.1422247 21.234976,15.7151442 C21.234976,15.7672278 21.2300932,15.8486072 21.2203275,15.9592849 C21.2105619,16.0699625 21.1975411,16.1969143 21.181265,16.3401442 C21.1649889,16.4833741 21.1454578,16.637995 21.1226713,16.8040114 C21.0998847,16.9700279 21.0787261,17.1344143 21.0591947,17.2971755 C21.0071111,17.6878024 20.9517731,18.1109753 20.8931791,18.5667067 L21.0982572,18.5569411 C21.3521647,17.5933946 21.6646616,16.7275179 22.0357572,15.9592849 C22.4068528,15.1910518 22.8235153,14.5383891 23.2857572,14.001277 C23.7479991,13.464165 24.246041,13.0523852 24.7798978,12.7659255 C25.3137547,12.4794657 25.8671346,12.336238 26.4400541,12.336238 C26.8371915,12.336238 27.1903781,12.4534243 27.4996244,12.6878005 C27.8088707,12.9221767 28.0676572,13.2395563 28.2759916,13.6399489 C28.484326,14.0403415 28.6438296,14.5090869 28.7545072,15.0461989 C28.8651848,15.583311 28.9205228,16.1513392 28.9205228,16.7503005 C28.9205228,17.3101991 28.8830883,17.8847376 28.8082181,18.4739333 C28.733348,19.0631289 28.6405755,19.6458054 28.5298978,20.2219802 C28.4192202,20.7981549 28.3004063,21.3629279 28.1734525,21.9163161 C28.0464988,22.4697043 27.9276848,22.9937876 27.8170072,23.4885817 C27.7063296,23.9833759 27.6135571,24.4407281 27.5386869,24.860652 C27.4638167,25.280576 27.4263822,25.6435281 27.4263822,25.9495192 C27.4263822,26.3336357 27.4963685,26.6119533 27.6363431,26.7844802 C27.7763178,26.9570071 27.9797663,27.0432692 28.2466947,27.0432692 C28.396435,27.0432692 28.5543111,27.0025795 28.7203275,26.9211989 C28.886344,26.8398183 29.0523579,26.7323975 29.2183744,26.5989333 C29.3843909,26.4654691 29.5487772,26.3124758 29.7115385,26.1399489 C29.8742997,25.967422 30.0305481,25.7900149 30.1802885,25.6077224 C30.5253423,25.1910536 30.8671357,24.7125428 31.2056791,24.1721755 C31.2056791,24.1786859 31.2349757,24.2470446 31.2935697,24.3772536 C31.3391429,24.4879312 31.4140119,24.6767314 31.5181791,24.9436599 C31.6223463,25.2105883 31.7688292,25.594699 31.9576322,26.0960036 C31.6321098,26.6689231 31.2968266,27.1539443 30.9517728,27.5510817 C30.606719,27.9482191 30.25516,28.2721091 29.8970853,28.5227614 C29.5390106,28.7734137 29.1760585,28.954076 28.8082181,29.0647536 C28.4403778,29.1754312 28.0741705,29.2307692 27.7095853,29.2307692 C27.3580211,29.2307692 27.0146,29.1689209 26.6793119,29.0452224 C26.3440238,28.9215238 26.0461752,28.7376064 25.7857572,28.4934645 C25.5253392,28.2493227 25.317008,27.9465913 25.1607572,27.5852614 C25.0045064,27.2239315 24.9263822,26.8088966 24.9263822,26.3401442 C24.9263822,26.2880606 24.9280098,26.2327226 24.931265,26.1741286 C24.9345202,26.1155346 24.939403,26.0569414 24.9459135,25.9983474 C24.9719553,25.5621473 25.0272932,25.0982847 25.1119291,24.6067458 C25.1965649,24.1152069 25.2925926,23.609027 25.400015,23.0881911 C25.5074374,22.5673552 25.619741,22.0367615 25.7369291,21.4963942 C25.8541172,20.9560269 25.961538,20.4172954 26.0591947,19.8801833 C26.1568514,19.3430712 26.2382308,18.8124776 26.3033353,18.2883864 C26.3684398,17.7642953 26.4009916,17.2613706 26.4009916,16.7795974 C26.4009916,16.4866271 26.3912261,16.2213303 26.3716947,15.9836989 C26.3521634,15.7460675 26.3131013,15.5442466 26.2545072,15.3782302 C26.1959132,15.2122137 26.1112786,15.0836343 26.000601,14.992488 C25.8899233,14.9013417 25.7434404,14.8557692 25.5611478,14.8557692 C25.216094,14.8557692 24.8905764,14.9762107 24.5845853,15.2170974 C24.2785942,15.457984 23.9888836,15.7900119 23.7154447,16.2131911 C23.4420058,16.6363703 23.1864745,17.1376674 22.9488431,17.7170974 C22.7112118,18.2965273 22.4866046,18.9231487 22.275015,19.5969802 C22.0634254,20.2708117 21.8664873,20.9771848 21.6841947,21.7161208 C21.5019021,22.4550568 21.332633,23.1988644 21.1763822,23.9475661 C21.0201314,24.6962678 20.8736485,25.4351927 20.7369291,26.164363 C20.6002097,26.8935333 20.4732578,27.5836306 20.3560697,28.2346755 C20.3039861,28.4169681 20.2242343,28.5715889 20.1168119,28.6985427 C20.0093895,28.8254964 19.8856928,28.9280345 19.7457181,29.0061599 C19.6057435,29.0842852 19.457633,29.1412508 19.3013822,29.1770583 C19.1451314,29.2128658 18.988883,29.2307692 18.8326322,29.2307692 C18.6959128,29.2307692 18.560823,29.2047278 18.4273588,29.1526442 C18.2938946,29.1005606 18.1767082,29.0175537 18.0757963,28.9036208 C17.9748843,28.7896879 17.8935049,28.6448326 17.8316556,28.4690505 C17.7698064,28.2932684 17.7388822,28.0784268 17.7388822,27.8245192 C17.7388822,27.6552476 17.7779443,27.3639093 17.8560697,26.9504958 C17.9341951,26.5370823 18.033478,26.0422955 18.1539213,25.4661208 C18.2743646,24.889946 18.4045716,24.2584419 18.5445463,23.5715895 C18.6845209,22.8847372 18.814728,22.1848744 18.9351713,21.4719802 C19.0556146,20.759086 19.1548974,20.0543404 19.2330228,19.3577224 C19.3111482,18.6611043 19.3502103,18.0198347 19.3502103,17.4338942 C19.3502103,17.0302464 19.3404448,16.6689219 19.3209135,16.3499099 C19.3013821,16.0308978 19.2558097,15.7607183 19.1841947,15.539363 C19.1125798,15.3180077 19.0100417,15.1487386 18.8765775,15.0315505 C18.7431133,14.9143624 18.5657062,14.8557692 18.344351,14.8557692 C18.1620584,14.8557692 17.9537271,14.9794659 17.719351,15.226863 C17.4849748,15.4742601 17.2326987,15.8160535 16.962515,16.2522536 C16.6923314,16.6884537 16.4140139,17.2011439 16.1275541,17.7903395 C15.8410943,18.3795352 15.5562664,19.0159221 15.2730619,19.6995192 C14.9898574,20.3831164 14.7164226,21.0976275 14.4527494,21.8430739 C14.1890762,22.5885204 13.9465656,23.3339556 13.7252103,24.079402 C13.5038551,24.8248485 13.3085445,25.5540079 13.1392728,26.266902 C12.9700012,26.9797962 12.8430493,27.6487349 12.7584135,28.273738 L12.7584135,28.273738 Z" id="M" fill="#FFFFFF"></path>
                            </g>
                        </g>
                    </g>
                </g>
            </g>
        </g>
    </g>
</svg>