<?xml version="1.0" encoding="UTF-8"?>
<svg width="22px" height="22px" viewBox="0 0 22 22" version="1.1" xmlns="http://www.w3.org/2000/svg" xmlns:xlink="http://www.w3.org/1999/xlink">
    <!-- Generator: Sketch 3.7.2 (28276) - http://www.bohemiancoding.com/sketch -->
    <title>Imported Layers</title>
    <desc>Created with Sketch.</desc>
    <defs></defs>
    <g id="Fiche" stroke="none" stroke-width="1" fill="none" fill-rule="evenodd">
        <path d="M21.8360296,10.2072414 C21.4801281,4.74636453 17.1171921,0.384295567 11.658266,0.0213497537 L11.658266,0 L10.2072414,0 L10.2072414,0.0213497537 C4.74636453,0.384295567 0.384403941,4.74636453 0.0213497537,10.2072414 L0,10.2072414 L0,11.658266 L0.0213497537,11.658266 C0.384403941,17.1171921 4.74636453,21.4802365 10.2072414,21.8360296 L10.2072414,21.864532 L11.658266,21.864532 L11.658266,21.8360296 C17.1171921,21.4802365 21.4801281,17.1171921 21.8360296,11.658266 L21.864532,11.658266 L21.864532,10.2072414 L21.8360296,10.2072414 L21.8360296,10.2072414 Z M6.84687685,2.38521182 C6.14233498,3.31582266 5.55158621,4.49103448 5.13076847,5.829133 L2.94669951,5.829133 C3.89324138,4.34873892 5.24542857,3.14675862 6.84687685,2.38521182 L6.84687685,2.38521182 Z M2.18504433,7.28817734 L4.74636453,7.28817734 C4.54803941,8.20632512 4.42785222,9.18852217 4.38428571,10.2072414 L1.4866798,10.2072414 C1.56492611,9.17421675 1.80790148,8.19917241 2.18504433,7.28817734 L2.18504433,7.28817734 Z M1.4866798,11.658266 L4.38428571,11.658266 C4.42785222,12.6760099 4.54803941,13.6582069 4.74636453,14.5763547 L2.18504433,14.5763547 C1.80790148,13.6653596 1.56492611,12.6903153 1.4866798,11.658266 L1.4866798,11.658266 Z M2.94669951,16.035399 L5.12361576,16.035399 C5.55158621,17.3734975 6.13518227,18.5478424 6.84687685,19.4801872 C5.24542857,18.7186404 3.89324138,17.5157931 2.94669951,16.035399 L2.94669951,16.035399 Z M10.2072414,20.312936 C8.7035468,19.914335 7.41540887,18.3058424 6.63424631,16.035399 L10.2072414,16.035399 L10.2072414,20.312936 L10.2072414,20.312936 Z M10.2072414,14.5763547 L6.22047291,14.5763547 C6.01412808,13.6653596 5.88516256,12.6903153 5.84333005,11.658266 L10.2072414,11.658266 L10.2072414,14.5763547 L10.2072414,14.5763547 Z M10.2072414,10.2072414 L5.84333005,10.2072414 C5.88516256,9.17421675 6.01412808,8.19917241 6.22047291,7.28817734 L10.2072414,7.28817734 L10.2072414,10.2072414 L10.2072414,10.2072414 Z M10.2072414,5.829133 L6.63424631,5.829133 C7.41540887,3.55868966 8.7035468,1.94922167 10.2072414,1.55246305 L10.2072414,5.829133 L10.2072414,5.829133 Z M18.9178325,5.829133 L16.7400493,5.829133 C16.3129458,4.49103448 15.7293498,3.31582266 15.0176552,2.38521182 C16.6191034,3.14675862 17.9712906,4.34873892 18.9178325,5.829133 L18.9178325,5.829133 Z M11.658266,1.55246305 C13.1600099,1.94922167 14.4482562,3.55868966 15.2311527,5.829133 L11.658266,5.829133 L11.658266,1.55246305 L11.658266,1.55246305 Z M11.658266,7.28817734 L15.6440591,7.28817734 C15.8504039,8.19917241 15.9713498,9.17421675 16.021202,10.2072414 L11.658266,10.2072414 L11.658266,7.28817734 L11.658266,7.28817734 Z M11.658266,11.658266 L16.021202,11.658266 C15.9783941,12.6903153 15.8504039,13.6653596 15.6440591,14.5763547 L11.658266,14.5763547 L11.658266,11.658266 L11.658266,11.658266 Z M11.658266,20.312936 L11.658266,16.035399 L15.2311527,16.035399 C14.4482562,18.3058424 13.1600099,19.914335 11.658266,20.312936 L11.658266,20.312936 Z M15.0176552,19.4801872 C15.722197,18.5406897 16.3129458,17.3734975 16.7400493,16.035399 L18.9178325,16.035399 C17.9712906,17.5157931 16.6191034,18.7186404 15.0176552,19.4801872 L15.0176552,19.4801872 Z M19.6794877,14.5763547 L17.1171921,14.5763547 C17.3164926,13.6582069 17.4374384,12.6760099 17.4802463,11.658266 L20.3769852,11.658266 C20.2987389,12.6903153 20.0566305,13.6653596 19.6794877,14.5763547 L19.6794877,14.5763547 Z M17.4802463,10.2072414 C17.4374384,9.18852217 17.3164926,8.20632512 17.1171921,7.28817734 L19.6794877,7.28817734 C20.0566305,8.19917241 20.2987389,9.17421675 20.3769852,10.2072414 L17.4802463,10.2072414 L17.4802463,10.2072414 Z" id="Imported-Layers" fill="#000000"></path>
    </g>
</svg>