<?xml version="1.0" encoding="UTF-8"?>
<svg width="18px" height="17px" viewBox="0 0 18 17" version="1.1" xmlns="http://www.w3.org/2000/svg" xmlns:xlink="http://www.w3.org/1999/xlink">
    <!-- Generator: Sketch 3.7.2 (28276) - http://www.bohemiancoding.com/sketch -->
    <title>Fill 1</title>
    <desc>Created with Sketch.</desc>
    <defs></defs>
    <g id="Search" stroke="none" stroke-width="1" fill="none" fill-rule="evenodd">
        <g id="Group-5" transform="translate(-102.000000, -292.000000)" fill="#FCD05B">
            <g id="Group-4" transform="translate(0.000000, 59.000000)">
                <g id="Group-20">
                    <g id="Group-19">
                        <g id="Group-13" transform="translate(10.000000, 233.000000)">
                            <path d="M106.19063,17 C106.095932,17 105.993439,16.9713811 105.885943,16.9148412 L101.434069,14.5742539 C101.301212,14.5044516 101.112979,14.4644316 100.917881,14.4644316 C100.722784,14.4644316 100.534667,14.5044516 100.40181,14.5742539 L95.9498193,16.9148412 C95.8423238,16.9712647 95.7398308,17 95.6451323,17 C95.5276318,17 95.4243244,16.9541632 95.3541731,16.8709821 C95.2914674,16.7965263 95.2255042,16.6577361 95.2665712,16.4183142 L96.1167632,11.4610715 C96.1701619,11.1495206 96.0240424,10.6999938 95.7977667,10.4793023 L92.1960846,6.96847947 C91.9702741,6.74836957 91.9872594,6.55943802 92.0173907,6.46648463 C92.0476384,6.37341491 92.1450126,6.21065922 92.4570288,6.16528773 L97.4345142,5.44201961 C97.7473448,5.39653178 98.129745,5.11871865 98.2695823,4.83532133 L100.495577,0.324929684 C100.635182,0.0421140515 100.820042,0 100.917881,0 C101.015721,0 101.200581,0.0421140515 101.340185,0.324929684 L103.56618,4.83532133 C103.706018,5.11871865 104.088534,5.39653178 104.401249,5.44201961 L109.378734,6.16528773 C109.69075,6.21065922 109.788124,6.37341491 109.818372,6.46648463 C109.84862,6.55943802 109.865605,6.74836957 109.639678,6.96847947 L106.037996,10.4793023 C105.81172,10.6999938 105.665601,11.1495206 105.719,11.4610715 L106.569192,16.4183142 C106.610259,16.6577361 106.544295,16.7965263 106.48159,16.8709821 C106.411438,16.9541632 106.308131,17 106.19063,17" id="Fill-1"></path>
                        </g>
                    </g>
                </g>
            </g>
        </g>
    </g>
</svg>