<?xml version="1.0" encoding="UTF-8"?>
<svg width="14px" height="17px" viewBox="0 0 14 17" version="1.1" xmlns="http://www.w3.org/2000/svg" xmlns:xlink="http://www.w3.org/1999/xlink">
    <!-- Generator: Sketch 3.7.2 (28276) - http://www.bohemiancoding.com/sketch -->
    <title>Page 1</title>
    <desc>Created with Sketch.</desc>
    <defs></defs>
    <g id="Paramètres" stroke="none" stroke-width="1" fill="none" fill-rule="evenodd">
        <g id="Group-24" transform="translate(-822.000000, -822.000000)" stroke="#56BDD8" stroke-width="0.6">
            <g id="Group-22" transform="translate(282.000000, 157.000000)">
                <g id="Group-21" transform="translate(390.000000, 0.000000)">
                    <g id="Group-19" transform="translate(45.000000, 285.000000)">
                        <g id="Group-16" transform="translate(63.000000, 370.000000)">
                            <path d="M49.6011473,21.6882622 L49.6011473,23.0640995 C49.6011473,23.3961389 49.3320394,23.6652468 49,23.6652468 C48.6680293,23.6652468 48.3988527,23.3961389 48.3988527,23.0640995 L48.3988527,21.6882622 C48.0199581,21.4769331 47.7633541,21.0726186 47.7633541,20.6079832 C47.7633541,19.9250112 48.3170279,19.3713373 49,19.3713373 C49.6829721,19.3713373 50.2366459,19.9250112 50.2366459,20.6079832 C50.2366459,21.0726186 49.9800419,21.4769331 49.6011473,21.6882622 L49.6011473,21.6882622 Z M46.6412353,15.0961836 L46.6417849,15.0961836 C46.6531895,13.7800488 47.7232318,12.7165333 49.0421147,12.7165333 C50.3609289,12.7165333 51.4309711,13.7800488 51.4424444,15.0961836 L51.4429254,15.0961836 L51.4429254,16.2848064 L46.6412353,16.2848064 L46.6412353,15.0961836 Z M54.2210505,16.2848064 L53.1679777,16.2848064 L53.1679777,15.1311532 L53.1670159,15.1311532 C53.1471609,12.8463124 51.2895813,11 49,11 C46.7104187,11 44.8528391,12.8463124 44.8329841,15.1311532 L44.8320223,15.1311532 L44.8320223,16.2848064 L43.7789495,16.2848064 C43.3487342,16.2848064 43,16.6336093 43,17.0638247 L43,25.010855 C43,25.4411391 43.3487342,25.7898732 43.7789495,25.7898732 L54.2210505,25.7898732 C54.6512658,25.7898732 55,25.4411391 55,25.010855 L55,17.0638247 C55,16.6336093 54.6512658,16.2848064 54.2210505,16.2848064 L54.2210505,16.2848064 Z" id="Page-1"></path>
                        </g>
                    </g>
                </g>
            </g>
        </g>
    </g>
</svg>