<?xml version="1.0" encoding="UTF-8"?>
<svg width="29px" height="32px" viewBox="0 0 29 32" version="1.1" xmlns="http://www.w3.org/2000/svg" xmlns:xlink="http://www.w3.org/1999/xlink">
    <!-- Generator: Sketch 3.7.2 (28276) - http://www.bohemiancoding.com/sketch -->
    <title>€</title>
    <desc>Created with Sketch.</desc>
    <defs></defs>
    <g id="Fiche" stroke="none" stroke-width="1" fill="none" fill-rule="evenodd">
        <path d="M28.4366244,5.8158596 C26.0670268,2.56919077 22.982079,0.2 17.4381148,0.2 C10.8211252,0.2 6.26076751,4.28027299 4.42768256,10.0716282 L0.225,10.0716282 L0.225,14.5028924 L3.57820417,14.5028924 C3.53349478,15.0293793 3.53349478,15.59974 3.53349478,16.1262268 C3.53349478,16.6088398 3.53349478,17.0475788 3.57820417,17.4863178 L0.225,17.4863178 L0.225,21.9175821 L4.33826379,21.9175821 C6.08192996,27.9283068 10.7317064,31.9647059 17.5722429,31.9647059 C22.7138227,31.9647059 25.8881893,29.5516412 28.5260432,25.9101072 L23.6080104,22.3563211 C21.6407973,24.7255119 20.1653875,25.9539812 17.5722429,25.9539812 C14.7555514,25.9539812 12.6989195,24.5061423 11.5364754,21.9175821 L19.8524218,21.9175821 L19.8524218,17.4863178 L10.5528689,17.4863178 C10.5081595,17.0475788 10.5081595,16.521092 10.5081595,16.038479 C10.5081595,15.5119922 10.5081595,14.9855054 10.5528689,14.5028924 L19.8524218,14.5028924 L19.8524218,10.0716282 L11.6258942,10.0716282 C12.7436289,7.65856354 14.6661326,6.21072473 17.3039866,6.21072473 C19.8971311,6.21072473 21.5513785,7.43919402 23.2503353,9.67676308 L28.4366244,5.8158596 Z" id="€" fill="#151313"></path>
    </g>
</svg>