<?xml version="1.0" encoding="UTF-8"?>
<svg width="50px" height="45px" viewBox="0 0 50 45" version="1.1" xmlns="http://www.w3.org/2000/svg" xmlns:xlink="http://www.w3.org/1999/xlink">
    <!-- Generator: Sketch 3.7.2 (28276) - http://www.bohemiancoding.com/sketch -->
    <title>Page 1</title>
    <desc>Created with Sketch.</desc>
    <defs>
        <polygon id="path-1" points="0 0.0381025945 0 44.3624432 49.7201699 44.3624432 49.7201699 0.0381025945 0 0.0381025945"></polygon>
    </defs>
    <g id="Fiche" stroke="none" stroke-width="1" fill="none" fill-rule="evenodd">
        <g id="Page-1" transform="translate(25.000000, 22.245763) scale(-1, -1) translate(-25.000000, -22.245763) ">
            <mask id="mask-2" fill="white">
                <use xlink:href="#path-1"></use>
            </mask>
            <g id="Clip-2"></g>
            <path d="M33.0108929,3.33448547 C33.7082143,4.61573547 38.3073214,11.6693069 37.6082143,20.7460926 C37.6082143,20.7460926 37.2582143,20.9050212 36.6778571,21.0960926 C36.1135714,21.280914 32.0233929,23.0728783 31.6742857,23.4228783 C31.6742857,23.4228783 30.3939286,28.4282355 28.1832143,29.4755569 C25.9716071,30.5219855 21.31625,36.2237712 20.8501786,36.6907355 C20.385,37.155914 18.5876786,37.0969855 16.1091071,39.687164 C14.16,41.7228783 14.4501786,43.2068069 14.4501786,43.2068069 C14.4501786,43.2068069 14.5323214,44.3362712 13.0733929,44.362164 C12.9296429,44.3648426 12.9001786,44.349664 12.5885714,44.2541283 C11.8091071,44.0166283 8.7475,40.5300212 11.19125,36.574664 C11.19125,36.574664 13.40375,33.3148426 15.1492857,32.1514498 C15.1492857,32.1514498 17.3591071,28.3112712 14.8010714,26.9139498 C14.8010714,26.9139498 9.44660714,25.7505569 8.98142857,25.6335926 C8.51625,25.5166283 6.30375,26.2166283 5.72160714,26.3318069 C5.14125,26.449664 2.23142857,26.6818069 1.65017857,26.099664 C1.06714286,25.5166283 0.136785714,23.4228783 0.0198214286,21.5612712 C0.0198214286,21.5612712 -0.329285714,19.6987712 1.88142857,19.1175212 C1.88142857,19.1175212 0.601964286,18.0701998 0.601964286,16.5568069 C0.601964286,15.0443069 0.368035714,13.0657355 2.6975,12.4853783 C2.6975,12.4853783 2.11535714,12.018414 1.99839286,10.9710926 C1.88142857,9.92287833 2.23142857,6.43269976 4.79125,6.2005569 C4.79125,6.2005569 5.14125,2.59252119 6.76982143,1.31127119 C8.39928571,0.0318069007 18.7564286,-0.550335956 23.6430357,0.846985472 C23.6430357,0.846985472 26.4189286,1.8193069 27.8332143,1.66127119 C29.8126786,1.43984262 31.0216071,1.7880569 31.0216071,1.7880569 C31.0216071,1.7880569 32.3117857,2.05502119 33.0108929,3.33448547" id="Fill-1" fill="#9A9A9A" mask="url(#mask-2)"></path>
            <path d="M44.0525893,22.2551105 C41.6829464,22.626539 39.4338393,22.9720748 38.9722321,23.0238605 C38.3927679,23.0881462 37.7775893,22.939039 37.3427679,22.601539 C37.4615179,22.6211819 37.5811607,22.8506462 37.7034821,22.8506462 L37.735625,22.8506462 C38.1150893,22.8506462 38.5097321,22.5443962 38.8695536,22.3792176 C39.2829464,22.1372533 39.8579464,21.4256462 40.0258036,19.9497533 C40.0445536,19.4283248 40.0570536,18.7604676 40.0463393,18.1631462 C40.0266964,17.7810033 40.0124107,17.4167176 40.0025893,17.1220748 C39.9865179,16.9238605 39.966875,16.7247533 39.941875,16.5586819 C39.735625,15.2113605 38.8079464,8.34171762 35.185625,2.54171762 C33.8829464,0.354217615 32.8597321,0.433681901 31.1722321,0.284574758 C31.7284821,-0.847568099 32.804375,-1.2975681 32.804375,-1.2975681 C32.804375,-1.2975681 38.5061607,-2.81096096 40.7766964,-1.93863953 L40.7150893,-1.94667524 C45.2454464,-0.279710956 46.7008036,2.75421762 48.0927679,7.20511047 C48.8186607,9.52296762 49.2749107,11.9193962 49.5133036,13.9310033 C49.6284821,14.895289 49.6954464,15.7720748 49.7177679,16.5060033 C49.8266964,20.2211819 46.2052679,21.7033248 44.0525893,22.2551105" id="Fill-4" fill="#9A9A9A" mask="url(#mask-2)"></path>
        </g>
    </g>
</svg>