<?xml version="1.0" encoding="UTF-8"?>
<svg width="18px" height="18px" viewBox="0 0 18 18" version="1.1" xmlns="http://www.w3.org/2000/svg" xmlns:xlink="http://www.w3.org/1999/xlink">
    <!-- Generator: Sketch 3.7.2 (28276) - http://www.bohemiancoding.com/sketch -->
    <title>Group 6</title>
    <desc>Created with Sketch.</desc>
    <defs></defs>
    <g id="Search" stroke="none" stroke-width="1" fill="none" fill-rule="evenodd">
        <g id="Group-8" transform="translate(-20.000000, -12.000000)" fill="#FFFFFF">
            <g id="Group-6" transform="translate(20.000000, 12.000000)">
                <path d="M6.07725,10.607625 L1.77975,14.90625 L1.796625,12.598875 C1.796625,12.10275 1.39725,11.69775 0.901125,11.69775 C0.403875,11.69775 0,12.10275 0,12.598875 L0,17.098875 C0,17.366625 0.109125,17.582625 0.28575,17.72775 C0.44775,17.89425 0.671625,18 0.9225,18 L5.401125,18 C5.89725,18 6.296625,17.595 6.296625,17.098875 C6.296625,16.60275 5.89725,16.19775 5.401125,16.19775 L3.031875,16.19775 L7.351875,11.87775 L6.07725,10.607625 Z" id="Fill-1"></path>
                <path d="M5.401125,1.796625 C5.89725,1.796625 6.296625,1.39725 6.296625,0.901125 C6.296625,0.403875 5.89725,0 5.401125,0 L0.9225,0 C0.671625,0 0.44775,0.10575 0.28575,0.26775 C0.109125,0.417375 0,0.63225 0,0.901125 L0,5.401125 C0,5.89725 0.403875,6.296625 0.901125,6.296625 C1.39725,6.296625 1.796625,5.89725 1.796625,5.401125 L1.77975,3.08925 L6.07725,7.39125 L7.351875,6.116625 L3.031875,1.796625 L5.401125,1.796625 Z" id="Fill-3"></path>
                <path d="M17.098875,11.69775 C16.60275,11.69775 16.19775,12.10275 16.19775,12.598875 L16.22025,14.91075 L11.91825,10.607625 L10.648125,11.88225 L14.963625,16.19775 L12.598875,16.19775 C12.10275,16.19775 11.69775,16.60275 11.69775,17.098875 C11.69775,17.595 12.10275,18 12.598875,18 L17.073,18 C17.32725,18 17.551125,17.89425 17.71425,17.72775 C17.88975,17.582625 18,17.366625 18,17.098875 L18,12.598875 C18,12.10275 17.595,11.69775 17.098875,11.69775" id="Fill-5"></path>
                <path d="M17.073,0 L12.598875,0 C12.10275,0 11.69775,0.403875 11.69775,0.901125 C11.69775,1.39725 12.10275,1.796625 12.598875,1.796625 L14.963625,1.796625 L10.643625,6.116625 L11.91825,7.39125 L16.22025,3.08925 L16.19775,5.401125 C16.19775,5.89725 16.60275,6.296625 17.098875,6.296625 C17.595,6.296625 18,5.89725 18,5.401125 L18,0.901125 C18,0.63225 17.88975,0.417375 17.71425,0.26775 C17.551125,0.10575 17.32275,0 17.073,0" id="Fill-7"></path>
            </g>
        </g>
    </g>
</svg>