<?xml version="1.0" encoding="UTF-8"?>
<svg width="44px" height="32px" viewBox="0 0 44 32" version="1.1" xmlns="http://www.w3.org/2000/svg" xmlns:xlink="http://www.w3.org/1999/xlink">
    <!-- Generator: Sketch 3.7.2 (28276) - http://www.bohemiancoding.com/sketch -->
    <title>Group 7</title>
    <desc>Created with Sketch.</desc>
    <defs>
        <polygon id="path-1" points="4.45018823e-05 24.9824266 32.7088835 24.9824266 32.7088835 -4.43213296e-05 4.45018823e-05 -4.43213296e-05 4.45018823e-05 24.9824266"></polygon>
    </defs>
    <g id="Paramètres" stroke="none" stroke-width="1" fill="none" fill-rule="evenodd">
        <g id="Group-24" transform="translate(-1018.000000, -305.000000)">
            <g id="Group-22" transform="translate(282.000000, 157.000000)">
                <g id="Group-21" transform="translate(390.000000, 0.000000)">
                    <g id="Group-8" transform="translate(304.000000, 105.000000)">
                        <g id="Group-7" transform="translate(42.000000, 43.000000)">
                            <g id="Page-1" transform="translate(0.000000, 6.736842)">
                                <mask id="mask-2" fill="white">
                                    <use xlink:href="#path-1"></use>
                                </mask>
                                <g id="Clip-2"></g>
                                <path d="M16.3544863,22.0276565 C12.3399715,22.0276565 9.08599382,18.7864377 9.08599382,14.7886537 C9.08599382,10.7904266 12.3399715,7.54920776 16.3544863,7.54920776 C20.3690011,7.54920776 23.6229787,10.7904266 23.6229787,14.7886537 C23.6229787,18.7864377 20.3690011,22.0276565 16.3544863,22.0276565 M4.27400528,10.2731967 C3.37284216,10.2731967 2.64256628,9.54544044 2.64256628,8.64793352 C2.64256628,7.75042659 3.37284216,7.02311357 4.27400528,7.02311357 C5.1751684,7.02311357 5.90588931,7.75042659 5.90588931,8.64793352 C5.90588931,9.54544044 5.1751684,10.2731967 4.27400528,10.2731967 M30.1861163,4.59474792 L23.4601018,4.59474792 L23.0702653,2.20627147 C23.0702653,0.987878116 21.573667,-4.43213296e-05 20.248846,-4.43213296e-05 L12.4601265,-4.43213296e-05 C11.1353055,-4.43213296e-05 9.6387072,0.987878116 9.6387072,2.20627147 L9.24887071,4.59474792 L2.52285621,4.59474792 C1.12950228,4.59474792 4.45018823e-05,5.73203324 4.45018823e-05,7.13480332 L4.45018823e-05,22.4420609 C4.45018823e-05,23.8452742 1.12950228,24.9825596 2.52285621,24.9825596 L30.1861163,24.9825596 C31.5794702,24.9825596 32.708928,23.8452742 32.708928,22.4420609 L32.708928,7.13480332 C32.708928,5.73203324 31.5794702,4.59474792 30.1861163,4.59474792 M16.3544863,9.91330748 C13.6509969,9.91330748 11.4592792,12.096133 11.4592792,14.7886537 C11.4592792,17.4811745 13.6509969,19.664 16.3544863,19.664 C19.0579756,19.664 21.2496933,17.4811745 21.2496933,14.7886537 C21.2496933,12.096133 19.0579756,9.91330748 16.3544863,9.91330748" id="Fill-1" fill="#FFFFFF" mask="url(#mask-2)"></path>
                            </g>
                            <polygon id="+" fill="#FFFFFF" points="43.3972504 4.69486226 39.0233191 4.69486226 39.0233191 0 36.4356007 0 36.4356007 4.69486226 32.0387692 4.69486226 32.0387692 7.06508399 36.4356007 7.06508399 36.4356007 11.7827368 39.0233191 11.7827368 39.0233191 7.06508399 43.3972504 7.06508399"></polygon>
                        </g>
                    </g>
                </g>
            </g>
        </g>
    </g>
</svg>