<?xml version="1.0" encoding="UTF-8"?>
<svg width="133px" height="129px" viewBox="0 0 133 129" version="1.1" xmlns="http://www.w3.org/2000/svg" xmlns:xlink="http://www.w3.org/1999/xlink">
    <!-- Generator: Sketch 3.7.2 (28276) - http://www.bohemiancoding.com/sketch -->
    <title>Group 44</title>
    <desc>Created with Sketch.</desc>
    <defs></defs>
    <g id="Fiche" stroke="none" stroke-width="1" fill="none" fill-rule="evenodd">
        <g id="Group-44" transform="translate(0.000000, 2.000000)">
            <path d="M132,107.205555 C130.588869,107.218528 129.234851,107.513333 128.272237,108.019085 L95.2751315,125.366967 C94.4783999,125.785165 93.7187456,125.998144 93.016863,125.998144 C92.1459767,125.998144 91.3802866,125.658412 90.8603416,125.041894 C90.3955815,124.490045 89.9066781,123.461365 90.2110571,121.686826 L96.5124799,84.9449097 C96.9082589,82.6357677 95.8252557,79.3039809 94.1481529,77.6682668 L67.4533327,51.6468744 C65.7796789,50.0154716 65.9055694,48.6151555 66.1288957,47.9262068 C66.3530843,47.2363959 67.0747989,46.030089 69.38739,45.6938062 L106.27934,40.3331131 C108.597967,39.995968 111.432228,37.9368824 112.468669,35.8364082 L128.967221,2.40644659 C129.95736,0.400591341 131.25464,0.0283509502 132,-2.23130976e-14 L132,107.205554 Z" id="Combined-Shape" stroke="#FCD05B" stroke-width="2" transform="translate(99.000000, 62.999072) scale(-1, 1) translate(-99.000000, -62.999072) "></path>
            <path d="M66,107.207411 C64.5888693,107.220384 63.2348508,107.515189 62.2722368,108.020941 L29.2751315,125.368823 C28.4783999,125.787021 27.7187456,126 27.016863,126 C26.1459767,126 25.3802866,125.660268 24.8603416,125.04375 C24.3955815,124.491901 23.9066781,123.46322 24.2110571,121.688682 L30.5124799,84.9467655 C30.9082589,82.6376234 29.8252557,79.3058367 28.1481529,77.6701226 L1.45333267,51.6487302 C-0.220321066,50.0173274 -0.0944305739,48.6170112 0.128895711,47.9280626 C0.353084259,47.2382517 1.07479893,46.0319448 3.38739003,45.695662 L40.2793402,40.3349689 C42.5979671,39.9978238 45.4322277,37.9387382 46.4686686,35.838264 L62.9672213,2.40830237 C63.9573596,0.402447118 65.2546397,0.0302067268 66,0.00185577658 L66,107.20741 Z" id="Combined-Shape" fill="#FCD05B"></path>
        </g>
    </g>
</svg>