<?xml version="1.0" encoding="UTF-8"?>
<svg width="50px" height="45px" viewBox="0 0 50 45" version="1.1" xmlns="http://www.w3.org/2000/svg" xmlns:xlink="http://www.w3.org/1999/xlink">
    <!-- Generator: Sketch 3.7.2 (28276) - http://www.bohemiancoding.com/sketch -->
    <title>Page 1</title>
    <desc>Created with Sketch.</desc>
    <defs>
        <polygon id="path-1" points="0 0.461831408 0 44.786172 49.7201699 44.786172 49.7201699 0.461831408 0 0.461831408"></polygon>
    </defs>
    <g id="Fiche" stroke="none" stroke-width="1" fill="none" fill-rule="evenodd">
        <g id="Page-1">
            <mask id="mask-2" fill="white">
                <use xlink:href="#path-1"></use>
            </mask>
            <g id="Clip-2"></g>
            <path d="M33.0108929,3.75821429 C33.7082143,5.03946429 38.3073214,12.0930357 37.6082143,21.1698214 C37.6082143,21.1698214 37.2582143,21.32875 36.6778571,21.5198214 C36.1135714,21.7046429 32.0233929,23.4966071 31.6742857,23.8466071 C31.6742857,23.8466071 30.3939286,28.8519643 28.1832143,29.8992857 C25.9716071,30.9457143 21.31625,36.6475 20.8501786,37.1144643 C20.385,37.5796429 18.5876786,37.5207143 16.1091071,40.1108929 C14.16,42.1466071 14.4501786,43.6305357 14.4501786,43.6305357 C14.4501786,43.6305357 14.5323214,44.76 13.0733929,44.7858929 C12.9296429,44.7885714 12.9001786,44.7733929 12.5885714,44.6778571 C11.8091071,44.4403571 8.7475,40.95375 11.19125,36.9983929 C11.19125,36.9983929 13.40375,33.7385714 15.1492857,32.5751786 C15.1492857,32.5751786 17.3591071,28.735 14.8010714,27.3376786 C14.8010714,27.3376786 9.44660714,26.1742857 8.98142857,26.0573214 C8.51625,25.9403571 6.30375,26.6403571 5.72160714,26.7555357 C5.14125,26.8733929 2.23142857,27.1055357 1.65017857,26.5233929 C1.06714286,25.9403571 0.136785714,23.8466071 0.0198214286,21.985 C0.0198214286,21.985 -0.329285714,20.1225 1.88142857,19.54125 C1.88142857,19.54125 0.601964286,18.4939286 0.601964286,16.9805357 C0.601964286,15.4680357 0.368035714,13.4894643 2.6975,12.9091071 C2.6975,12.9091071 2.11535714,12.4421429 1.99839286,11.3948214 C1.88142857,10.3466071 2.23142857,6.85642857 4.79125,6.62428571 C4.79125,6.62428571 5.14125,3.01625 6.76982143,1.735 C8.39928571,0.455535714 18.7564286,-0.126607143 23.6430357,1.27071429 C23.6430357,1.27071429 26.4189286,2.24303571 27.8332143,2.085 C29.8126786,1.86357143 31.0216071,2.21178571 31.0216071,2.21178571 C31.0216071,2.21178571 32.3117857,2.47875 33.0108929,3.75821429" id="Fill-1" fill="#900000" mask="url(#mask-2)"></path>
            <path d="M44.0525893,22.6788393 C41.6829464,23.0502679 39.4338393,23.3958036 38.9722321,23.4475893 C38.3927679,23.511875 37.7775893,23.3627679 37.3427679,23.0252679 C37.4615179,23.0449107 37.5811607,23.274375 37.7034821,23.274375 L37.735625,23.274375 C38.1150893,23.274375 38.5097321,22.968125 38.8695536,22.8029464 C39.2829464,22.5609821 39.8579464,21.849375 40.0258036,20.3734821 C40.0445536,19.8520536 40.0570536,19.1841964 40.0463393,18.586875 C40.0266964,18.2047321 40.0124107,17.8404464 40.0025893,17.5458036 C39.9865179,17.3475893 39.966875,17.1484821 39.941875,16.9824107 C39.735625,15.6350893 38.8079464,8.76544643 35.185625,2.96544643 C33.8829464,0.777946429 32.8597321,0.857410714 31.1722321,0.708303571 C31.7284821,-0.423839286 32.804375,-0.873839286 32.804375,-0.873839286 C32.804375,-0.873839286 38.5061607,-2.38723214 40.7766964,-1.51491071 L40.7150893,-1.52294643 C45.2454464,0.144017857 46.7008036,3.17794643 48.0927679,7.62883929 C48.8186607,9.94669643 49.2749107,12.343125 49.5133036,14.3547321 C49.6284821,15.3190179 49.6954464,16.1958036 49.7177679,16.9297321 C49.8266964,20.6449107 46.2052679,22.1270536 44.0525893,22.6788393" id="Fill-4" fill="#900000" mask="url(#mask-2)"></path>
        </g>
    </g>
</svg>