<?xml version="1.0" encoding="UTF-8"?>
<svg width="30px" height="29px" viewBox="0 0 30 29" version="1.1" xmlns="http://www.w3.org/2000/svg" xmlns:xlink="http://www.w3.org/1999/xlink">
    <!-- Generator: Sketch 3.7.2 (28276) - http://www.bohemiancoding.com/sketch -->
    <title>Fill 1</title>
    <desc>Created with Sketch.</desc>
    <defs></defs>
    <g id="Fiche" stroke="none" stroke-width="1" fill="none" fill-rule="evenodd">
        <g id="Group-37" transform="translate(-257.000000, -291.000000)" fill="#878787">
            <g id="Group-35" transform="translate(257.000000, 256.000000)">
                <g id="Group-13" transform="translate(0.000000, 35.136364)">
                    <path d="M23.8687371,28.5128826 C23.7094537,28.5128826 23.5370597,28.4648821 23.3562515,28.3700519 L15.868169,24.4443524 C15.6447025,24.327278 15.3280924,24.2601554 14.9999373,24.2601554 C14.6717821,24.2601554 14.3553677,24.327278 14.1319012,24.4443524 L6.64362305,28.3700519 C6.46281483,28.464687 6.29042084,28.5128826 6.13113741,28.5128826 C5.93350071,28.5128826 5.75973697,28.4360038 5.64174199,28.2964901 C5.53627053,28.1716108 5.42532003,27.9388279 5.49439503,27.5372627 L6.9244237,19.2228346 C7.01424077,18.7002925 6.76846682,17.9463335 6.38786943,17.5761832 L0.329815579,11.6877316 C-0.0499990961,11.318557 -0.0214298316,11.0016757 0.0292512611,10.8457716 C0.0801280336,10.6896724 0.243912105,10.416694 0.768725582,10.3405956 L9.14088986,9.1275098 C9.6670731,9.05121632 10.3102729,8.58526024 10.5454801,8.10993821 L14.2896192,0.544981292 C14.5244351,0.0706348828 14.8353705,0 14.9999373,0 C15.1645041,0 15.4754394,0.0706348828 15.7102553,0.544981292 L19.4543944,8.10993821 C19.6896016,8.58526024 20.3329971,9.05121632 20.8589847,9.1275098 L29.2311489,10.3405956 C29.7559624,10.416694 29.9197465,10.6896724 29.9706233,10.8457716 C30.0215,11.0016757 30.0500693,11.318557 29.6700589,11.6877316 L23.6120051,17.5761832 C23.2314077,17.9463335 22.9856337,18.7002925 23.0754508,19.2228346 L24.5054795,27.5372627 C24.5745545,27.9388279 24.463604,28.1716108 24.3581325,28.2964901 C24.2401376,28.4360038 24.0663738,28.5128826 23.8687371,28.5128826" id="Fill-1"></path>
                </g>
            </g>
        </g>
    </g>
</svg>