<?xml version="1.0" encoding="UTF-8"?>
<svg width="10px" height="15px" viewBox="0 0 10 15" version="1.1" xmlns="http://www.w3.org/2000/svg" xmlns:xlink="http://www.w3.org/1999/xlink">
    <!-- Generator: Sketch 3.7.2 (28276) - http://www.bohemiancoding.com/sketch -->
    <title>Fill 21</title>
    <desc>Created with Sketch.</desc>
    <defs></defs>
    <g id="Home" stroke="none" stroke-width="1" fill="none" fill-rule="evenodd">
        <g id="Group-21" transform="translate(-10.000000, -336.000000)" fill="#000000">
            <g id="Group-20" transform="translate(0.000000, 88.000000)">
                <g id="Group-19">
                    <g id="Group-14" transform="translate(10.000000, 248.000000)">
                        <path d="M4.69367645,2.37555639 C3.60148884,2.37555639 2.71288219,3.2590938 2.71288219,4.34513231 C2.71288219,5.4310893 3.60148884,6.31462671 4.69367645,6.31462671 C5.78594605,6.31462671 6.67455271,5.4310893 6.67455271,4.34513231 C6.67455271,3.2590938 5.78594605,2.37555639 4.69367645,2.37555639 L4.69367645,2.37555639 Z M4.60086387,14.8182871 C4.17869782,13.9922228 0.475869445,6.74612362 0.459471463,6.71172126 C0.154714963,6.07821238 0,5.39693151 0,4.68728091 C0,2.10270165 2.10558291,0 4.69367645,0 C7.28176999,0 9.38735291,2.10270165 9.38735291,4.68728091 C9.38735291,5.43646976 9.21558404,6.15223452 8.87671974,6.8147653 L4.69367645,15 L4.60086387,14.8182871 Z" id="Fill-21"></path>
                    </g>
                </g>
            </g>
        </g>
    </g>
</svg>