<?xml version="1.0" encoding="UTF-8"?>
<svg width="101px" height="71px" viewBox="0 0 101 71" version="1.1" xmlns="http://www.w3.org/2000/svg" xmlns:xlink="http://www.w3.org/1999/xlink">
    <!-- Generator: Sketch 3.7.2 (28276) - http://www.bohemiancoding.com/sketch -->
    <title>M</title>
    <desc>Created with Sketch.</desc>
    <defs></defs>
    <g id="Home" stroke="none" stroke-width="1" fill="none" fill-rule="evenodd">
        <path d="M20.4352851,66.3246805 C20.3269715,67.1370322 20.0697307,67.8004428 19.6635548,68.3149323 C19.2573789,68.8294217 18.7699752,69.2355915 18.201329,69.5334538 C17.6326827,69.8313161 17.0234281,70.0411705 16.3735467,70.1630233 C15.7236653,70.284876 15.1008716,70.3458015 14.505147,70.3458015 C13.8011088,70.3458015 13.1173897,70.271337 12.4539691,70.1224059 C11.7905485,69.9734747 11.2016023,69.7433119 10.6871129,69.4319103 C10.1726234,69.1205088 9.76645365,68.7414171 9.46859134,68.2946236 C9.17072903,67.8478301 9.02180011,67.3401179 9.02180011,66.7714717 C9.02180011,65.6612576 9.07595608,64.6390637 9.18426965,63.7048592 C9.29258321,62.7706547 9.45505113,61.8296947 9.67167826,60.881951 C10.4298732,57.7137792 11.0932839,54.7690482 11.6619301,52.0476699 C12.2305763,49.3262915 12.71798,46.7471134 13.1241559,44.3100582 C13.5303318,41.873003 13.8823456,39.5104487 14.1802079,37.2223246 C14.4780702,34.9342006 14.7420806,32.6325718 14.9722469,30.3173693 C15.2024132,28.0021668 15.4122676,25.6125346 15.6018164,23.148401 C15.7913651,20.6842674 15.99445,18.0441638 16.2110771,15.2280111 L16.2110771,14.2938112 C16.2110771,13.9147138 16.1704601,13.5559305 16.089225,13.2174506 C16.0079898,12.8789707 15.8658304,12.5878823 15.6627424,12.3441768 C15.4596545,12.1004713 15.1550272,11.9786203 14.7488513,11.9786203 C14.0989699,11.9786203 13.3069388,12.2020137 12.3727343,12.6488072 C11.4385298,13.0956006 10.4569528,13.6980858 9.42797395,14.4562808 C8.39899508,15.2144757 7.37003163,16.1012798 6.34105275,17.1167194 C5.31207387,18.1321591 4.36434438,19.222048 3.49783585,20.3864189 C3.33536551,20.7925948 3.07812464,21.0836831 2.72610555,21.2596926 C2.37408646,21.4357022 1.98145568,21.5237056 1.54820141,21.5237056 C1.41280945,21.5237056 1.27065003,21.4086242 1.12171888,21.1784579 C0.972787723,20.9482915 0.837397797,20.6707422 0.715545035,20.3458015 C0.593692273,20.0208608 0.492149827,19.6756165 0.410914653,19.3100582 C0.329679478,18.9444999 0.2890625,18.6127946 0.2890625,18.3149323 C0.2890625,18.1524619 0.343218471,18.017072 0.451532037,17.9087584 C1.42635413,14.7135082 2.52978204,12.0395572 3.76184885,9.88682505 C4.99391567,7.73409292 6.29365897,6.01464085 7.66111774,4.72841725 C9.02857651,3.44219366 10.4230928,2.52831165 11.8447083,1.98674382 C13.2663239,1.44517599 14.6269926,1.17439613 15.9267554,1.17439613 C17.6056157,1.17439613 19.000132,1.49256246 20.110346,2.12890466 C21.2205601,2.76524686 22.1005946,3.65882038 22.750476,4.80965202 C23.4003574,5.96048366 23.8539136,7.34823041 24.1111584,8.97293391 C24.3684031,10.5976374 24.4970235,12.3983234 24.4970235,14.375046 C24.4970235,15.8914359 24.3751726,17.665044 24.131467,19.6959233 C23.8877615,21.7268027 23.5831342,23.8591941 23.2175759,26.0931614 C22.8520176,28.3271287 22.4526173,30.567832 22.0193631,32.8153385 C21.5861088,35.062845 21.1664,37.1613888 20.7602242,39.111033 C21.6267327,35.5096069 22.6489266,32.0503943 23.8268367,28.7332913 C25.0047467,25.4161884 26.290951,22.3157591 27.6854882,19.4319103 C29.0800253,16.5480616 30.562545,13.9350361 32.1330917,11.5927552 C33.7036385,9.25047432 35.3215481,7.23993391 36.9868692,5.56107363 C38.6521902,3.88221336 40.3377948,2.58247006 42.0437335,1.66180474 C43.7496722,0.741139432 45.4420463,0.28081368 47.1209065,0.28081368 C48.3665125,0.28081368 49.5173269,0.551593534 50.5733842,1.09316137 C51.6294415,1.6347292 52.536554,2.47414674 53.2947489,3.61143919 C54.0529439,4.74873163 54.6418901,6.18386486 55.0616051,7.91688192 C55.4813202,9.64989898 55.6911746,11.7078259 55.6911746,14.0907243 C55.6911746,14.3073515 55.6708661,14.6458263 55.6302485,15.1061589 C55.5896309,15.5664916 55.535475,16.0945123 55.467779,16.6902369 C55.400083,17.2859615 55.3188491,17.9290637 55.2240747,18.6195627 C55.1293003,19.3100616 55.0412969,19.9937808 54.9600617,20.6707406 C54.7434346,22.2954441 54.5132717,24.0555131 54.2695662,25.9510005 L55.1225312,25.9103831 C56.1785885,21.9027812 57.4783318,18.3014091 59.0218001,15.1061589 C60.5652684,11.9109087 62.2982595,9.19634069 64.2208253,6.96237339 C66.1433911,4.72840608 68.214857,3.01572351 70.4352851,1.82427428 C72.6557132,0.632825053 74.9573419,0.037109375 77.3402404,0.037109375 C78.9920223,0.037109375 80.461003,0.524513112 81.7472266,1.49933521 C83.0334502,2.4741573 84.1098001,3.79420909 84.9763086,5.45953017 C85.8428172,7.12485125 86.5062278,9.0744662 86.9665605,11.3084335 C87.4268931,13.5424008 87.657056,15.904955 87.657056,18.3961671 C87.657056,20.7249087 87.5013576,23.1145409 87.1899561,25.5651354 C86.8785546,28.0157298 86.4926933,30.4392095 86.0323606,32.8356471 C85.572028,35.2320848 85.0778547,37.5811 84.5498261,39.8827633 C84.0217975,42.1844266 83.5276242,44.3642044 83.0672916,46.4221622 C82.6069589,48.4801199 82.2210976,50.3823484 81.9096961,52.1289047 C81.5982946,53.8754609 81.4425962,55.3850586 81.4425962,56.657743 C81.4425962,58.2553681 81.7336846,59.412952 82.31587,60.1305294 C82.8980554,60.8481067 83.7442424,61.20689 84.8544565,61.20689 C85.4772595,61.20689 86.1339006,61.0376526 86.8243996,60.6991727 C87.5148986,60.3606928 88.2053872,59.9139061 88.8958862,59.3587991 C89.5863852,58.803692 90.2701043,58.1673594 90.9470641,57.449782 C91.6240239,56.7322046 92.2738956,55.9943295 92.8966986,55.2361346 C94.3318533,53.5031175 95.7534476,51.5128856 97.1615239,49.2653791 C97.1615239,49.2924575 97.2833748,49.5767763 97.5270804,50.1183441 C97.7166291,50.5786768 98.0280259,51.3639384 98.4612802,52.4741524 C98.8945345,53.5843665 99.5037891,55.1819676 100.289062,57.2670038 C98.9351429,59.6499022 97.5406267,61.6672121 96.1054719,63.318994 C94.6703172,64.9707759 93.208106,66.3179057 91.7187944,67.3604238 C90.2294829,68.4029418 88.7198852,69.1543559 87.1899561,69.6146886 C85.660027,70.0750212 84.1368903,70.3051841 82.6205004,70.3051841 C81.1582672,70.3051841 79.7299035,70.0479432 78.3353663,69.5334538 C76.9408292,69.0189644 75.7020113,68.2540113 74.6188757,67.2385716 C73.53574,66.2231319 72.6692445,64.9640056 72.0193631,63.4611549 C71.3694817,61.9583041 71.0445458,60.2320826 71.0445458,58.2824384 C71.0445458,58.0658112 71.0513153,57.8356484 71.0648545,57.5919428 C71.0783937,57.3482373 71.0987022,57.1045355 71.1257806,56.8608299 C71.2340942,55.0465777 71.4642571,53.1172712 71.8162761,51.0728527 C72.1682952,49.0284341 72.5676955,46.9231207 73.014489,44.7568494 C73.4612824,42.5905781 73.9283777,40.3837223 74.4157887,38.1362158 C74.9031998,35.8887093 75.3499865,33.648006 75.7561624,31.4140387 C76.1623383,29.1800714 76.5008131,26.9732156 76.771597,24.7934051 C77.0423809,22.6135945 77.1777709,20.5218202 77.1777709,18.5180192 C77.1777709,17.2994916 77.1371539,16.1960637 77.0559187,15.2077024 C76.9746835,14.2193411 76.8122156,13.3799236 76.5685101,12.6894246 C76.3248046,11.9989256 75.9727908,11.4641354 75.5124581,11.0850379 C75.0521255,10.7059404 74.4428708,10.5163945 73.6846758,10.5163945 C72.2495211,10.5163945 70.8956218,11.0173372 69.6229374,12.0192377 C68.350253,13.0211382 67.1452826,14.4021155 66.0079902,16.1622109 C64.8706978,17.9223064 63.8078868,20.0073112 62.8195255,22.4172881 C61.8311642,24.8272649 60.8969738,27.433521 60.016926,30.2361346 C59.1368783,33.0387481 58.3177692,35.9767095 57.5595743,39.0501069 C56.8013793,42.1235044 56.0973517,45.2171642 55.4474703,48.3311792 C54.7975889,51.4451943 54.1883342,54.5185456 53.619688,57.5513255 C53.0510418,60.5841053 52.5230211,63.4543718 52.03561,66.1622109 C51.8189829,66.9204059 51.4872776,67.563508 51.0404841,68.0915367 C50.5936906,68.6195653 50.0792089,69.0460436 49.4970235,69.3709843 C48.9148381,69.695925 48.2988139,69.9328573 47.6489325,70.0817885 C46.9990511,70.2307197 46.3491795,70.3051841 45.6992981,70.3051841 C45.1306519,70.3051841 44.5687837,70.1968722 44.0136766,69.980245 C43.4585696,69.7636179 42.9711659,69.4183736 42.5514508,68.9445017 C42.1317357,68.4706299 41.7932609,67.8681447 41.5360162,67.1370281 C41.2787715,66.4059116 41.150151,65.5123381 41.150151,64.4562808 C41.150151,63.7522426 41.312619,62.5405028 41.6375597,60.8210249 C41.9625004,59.101547 42.3754396,57.0436201 42.8763899,54.6471825 C43.3773401,52.2507448 43.9188998,49.6241803 44.5010852,46.7674099 C45.0832707,43.9106396 45.6248304,40.9997562 46.1257806,38.0346723 C46.6267309,35.0695885 47.0396701,32.1383965 47.3646108,29.2410086 C47.6895515,26.3436207 47.8520194,23.6764392 47.8520194,21.2393839 C47.8520194,19.5605237 47.8114025,18.0576955 47.7301673,16.7308543 C47.6489321,15.4040131 47.4593862,14.2802767 47.1615239,13.3596114 C46.8636616,12.4389461 46.4371833,11.7349185 45.8820763,11.2475074 C45.3269693,10.7600964 44.5890942,10.5163945 43.6684289,10.5163945 C42.9102339,10.5163945 42.0437384,11.0308762 41.0689163,12.0598551 C40.0940942,13.088834 39.0448222,14.5104282 37.921069,16.3246805 C36.7973157,18.1389327 35.6397319,20.271324 34.4482826,22.7219185 C33.2568334,25.1725129 32.0721716,27.819386 30.8942615,30.6626171 C29.7163515,33.5058482 28.5790761,36.4776571 27.4824012,39.5781329 C26.3857264,42.6786088 25.3770714,45.7790381 24.4564061,48.8795139 C23.5357408,51.9799898 22.7234012,55.0127241 22.0193631,57.977808 C21.3153249,60.9428919 20.7873042,63.7251549 20.4352851,66.3246805 L20.4352851,66.3246805 Z" id="M" fill="#56BDD8"></path>
    </g>
</svg>